<svg width="50" height="50" viewBox="0 0 50 50" fill="none" xmlns="http://www.w3.org/2000/svg">
<path d="M0.81134 12.68C0.81134 6.07435 6.1663 0.719391 12.772 0.719391H37.7301C44.3358 0.719391 49.6907 6.07435 49.6907 12.68V37.6382C49.6907 44.2438 44.3358 49.5988 37.7301 49.5988H12.772C6.1663 49.5988 0.81134 44.2438 0.81134 37.6382V12.68Z" fill="#79CA00"/>
<path d="M33.0579 16.4579H17.4438C16.3674 16.4579 15.492 17.3251 15.492 18.3914V31.9263C15.492 32.9927 16.3674 33.8599 17.4438 33.8599H33.0579C34.1343 33.8599 35.0096 32.9927 35.0096 31.9263V18.3914C35.0096 17.3251 34.1343 16.4579 33.0579 16.4579ZM33.0588 22.2585C33.0579 22.2585 33.0579 22.2585 33.0588 22.2585H32.605L30.0024 18.3914H33.0579L33.0588 22.2585ZM28.6664 28.0592L23.299 30.9595V25.1589L28.6664 28.0592ZM27.7256 22.2585L25.123 18.3914H27.6564L30.259 22.2585H27.7256ZM25.3796 22.2585H22.8462L20.2436 18.3914H22.777L25.3796 22.2585ZM17.4438 18.3914H17.8975L20.5002 22.2585H17.4438V18.3914Z" fill="white"/>
</svg>
