<svg width="28" height="25" viewBox="0 0 28 25" fill="none" xmlns="http://www.w3.org/2000/svg">
<path d="M20.5412 21.6862C20.5001 20.8091 20.4458 19.9365 20.4023 19.0659C20.2616 16.3425 20.2732 13.5792 20.126 10.8423C19.9788 8.12586 20.0661 5.40766 19.9885 2.69137C19.9728 2.12683 19.998 1.01193 19.4139 0.690094C18.1573 -0.00125518 17.4113 1.88449 17.0916 2.65222C16.5153 4.04574 16.1824 5.51138 15.7708 6.95507C15.4199 8.19083 15.0204 9.42259 14.885 10.7021C14.7847 11.6621 14.7939 12.7369 15.2955 13.6019C15.5473 14.0367 15.9828 14.3326 16.4786 14.4576C16.9933 14.5893 17.5817 14.4169 18.07 14.6493C18.1959 14.7101 18.3068 14.8365 18.3573 14.9642C18.5156 15.3755 18.3659 15.9996 18.3164 16.4239C18.1596 17.791 17.9939 19.1716 17.9197 20.5452C17.8758 21.3759 17.8273 22.4398 18.3298 23.1635C18.6378 23.603 19.262 24.0134 19.8253 23.795C20.6671 23.4728 20.5761 22.3843 20.5412 21.6862Z" fill="white"/>
<path d="M9.83151 1.29647C9.58958 1.39346 9.68132 2.25842 9.67054 2.52418C9.65463 3.00164 9.68724 3.63342 9.62974 4.25221C9.6294 4.25774 9.62859 4.26158 9.62777 4.26542C9.62279 4.30842 9.61876 4.3548 9.61168 4.40379C9.60414 4.45108 9.59612 4.49667 9.59033 4.54351C9.53876 4.8452 9.44058 5.20247 9.25501 5.37376C9.04432 5.56967 8.57221 5.52846 8.40825 5.29698C8.13999 4.92017 8.16012 4.07889 8.14383 4.05408C8.13293 3.65609 8.07493 2.45234 7.98795 1.65869C7.98074 1.59889 7.96918 1.23915 7.64074 1.20071C7.48758 1.18408 7.32641 1.3146 7.27418 1.55299C7.11992 2.25664 6.97546 3.59796 6.96637 3.80888C6.96452 3.8293 6.96361 3.85312 6.96352 3.87309C6.96352 3.87309 6.96271 3.87693 6.96318 3.87862C6.96218 3.9224 6.91002 4.97327 6.64408 5.33581C6.5051 5.52589 6.14425 5.67537 5.78566 5.47424C5.64283 5.39327 5.54495 5.23721 5.47595 5.07005C5.10095 3.90289 5.43757 2.61709 5.48548 2.0044C5.49966 1.83207 5.65571 1.25672 5.30757 1.27597C4.78337 1.30445 4.10642 3.53785 3.98539 4.04974C3.68864 5.32342 3.64365 6.68438 4.15982 7.913C4.44659 8.59334 5.00743 9.15026 5.70293 9.42029C6.01029 9.53853 6.35189 9.62435 6.71357 9.67415C6.58345 12.5697 6.43569 15.5912 6.30113 17.2728C6.19765 18.5382 6.07546 19.8176 6.09189 21.0883C6.10161 21.8475 6.09361 22.7527 6.59196 23.3893C7.11328 24.0544 8.21284 23.7484 8.50973 22.9626C8.84275 22.0767 8.74589 21.0444 8.6325 19.4179C8.51863 17.7896 8.39046 15.5684 8.31984 14.3734C8.21646 12.6137 8.18039 11.076 8.17046 9.67303C9.09639 9.54072 9.95999 9.14341 10.4433 8.41275C10.6554 8.09316 10.795 7.73607 10.8903 7.36865C11.0366 6.81216 11.1079 6.20249 11.0763 5.62849C11.0442 5.09996 10.6098 0.984687 9.83151 1.29647Z" fill="white"/>
</svg>
