<svg width="55" height="58" viewBox="0 0 55 58" fill="none" xmlns="http://www.w3.org/2000/svg">
<path d="M35.6842 45.7741C35.7719 45.0546 31.3062 43.9181 25.7098 43.2357C20.1133 42.5533 15.5054 42.5834 15.4176 43.3029L15.1566 45.4433C15.0689 46.1629 19.5346 47.2994 25.131 47.9818C30.7275 48.6642 35.3354 48.6341 35.4232 47.9146L35.6842 45.7741Z" fill="#CFCFCF"/>
<path fill-rule="evenodd" clip-rule="evenodd" d="M36.1441 44.6474C36.3038 44.7771 36.7824 45.2016 36.6975 45.8977L36.4365 48.0381C36.3517 48.7341 35.7851 49.0312 35.5989 49.1188C35.3343 49.2433 35.0239 49.3193 34.7257 49.3716C34.1133 49.4791 33.2903 49.5296 32.3395 49.5358C30.4234 49.5483 27.8287 49.3811 25.0025 49.0365C22.1762 48.6918 19.6173 48.2306 17.7604 47.7581C16.8389 47.5235 16.0522 47.2768 15.4836 47.0253C15.2067 46.9028 14.9237 46.7545 14.6967 46.5701C14.537 46.4403 14.0584 46.0158 14.1433 45.3198L14.4043 43.1793C14.4892 42.4833 15.0557 42.1862 15.2419 42.0986C15.5066 41.9742 15.8169 41.8982 16.1152 41.8458C16.7275 41.7383 17.5505 41.6879 18.5013 41.6817C20.4174 41.6692 23.0121 41.8364 25.8384 42.181C28.6647 42.5256 31.2235 42.9868 33.0804 43.4594C34.0019 43.6939 34.7887 43.9406 35.3572 44.1921C35.6342 44.3146 35.9172 44.463 36.1441 44.6474ZM25.7098 43.2357C31.3062 43.9181 35.7719 45.0546 35.6842 45.7741L35.4232 47.9146C35.3355 48.6341 30.7275 48.6642 25.1311 47.9818C19.5346 47.2994 15.0689 46.1629 15.1566 45.4433L15.4176 43.3029C15.5054 42.5833 20.1133 42.5533 25.7098 43.2357Z" fill="#8C8C8C"/>
<path d="M35.4232 47.9146L35.6199 46.3014C34.7825 46.8503 32.3694 46.9413 29.8996 46.8274L29.708 48.3987C33.0402 48.5873 35.3612 48.4232 35.4232 47.9146Z" fill="#B3B3B3"/>
<path d="M35.6823 45.7896C35.5935 46.5178 30.9847 46.5548 25.3882 45.8724C19.7918 45.19 15.3269 44.0465 15.4157 43.3184C15.5045 42.5903 20.1133 42.5533 25.7098 43.2357C31.3062 43.9181 35.7711 45.0615 35.6823 45.7896Z" fill="#F0EFEF"/>
<path fill-rule="evenodd" clip-rule="evenodd" d="M34.7766 46.2139C34.7483 46.2187 34.7195 46.2233 34.6901 46.2279C33.0309 46.4852 29.4726 46.3704 25.3883 45.8724C21.3039 45.3744 17.8223 44.6308 16.2735 43.9823C16.2461 43.9708 16.2192 43.9593 16.193 43.9479C15.6714 43.7205 15.3929 43.5057 15.4157 43.3184C15.4386 43.1311 15.7605 42.9895 16.3215 42.8942C16.3497 42.8894 16.3785 42.8847 16.4079 42.8801C18.0671 42.6228 21.6254 42.7376 25.7098 43.2357C29.7941 43.7337 33.2758 44.4773 34.8245 45.1258C34.852 45.1373 34.8788 45.1488 34.905 45.1602C35.4266 45.3875 35.7051 45.6023 35.6823 45.7896C35.6595 45.9769 35.3375 46.1185 34.7766 46.2139ZM35.0255 45.0658C35.0241 45.0665 35.0224 45.0673 35.0204 45.0681C35.0447 45.0535 35.0508 45.0537 35.0255 45.0658ZM16.2272 42.7736C16.2056 42.7558 16.2116 42.7571 16.2317 42.7771C16.2299 42.7758 16.2285 42.7746 16.2272 42.7736ZM16.0725 44.0423C16.074 44.0416 16.0757 44.0408 16.0777 44.0399C16.0534 44.0545 16.0472 44.0543 16.0725 44.0423ZM34.8708 46.3345C34.8925 46.3522 34.8865 46.351 34.8664 46.331C34.8681 46.3323 34.8696 46.3335 34.8708 46.3345ZM32.5987 47.4218C30.6817 47.4372 28.0863 47.2717 25.2597 46.9271C22.433 46.5824 19.8739 46.1194 18.0167 45.6438C17.0952 45.4077 16.308 45.159 15.739 44.9051C15.4617 44.7814 15.1784 44.6314 14.9512 44.4449C14.7881 44.3109 14.3182 43.8859 14.4024 43.1949C14.4867 42.5038 15.045 42.2042 15.2355 42.1134C15.5008 41.9868 15.812 41.9094 16.1108 41.8559C16.7241 41.7461 17.548 41.6939 18.4993 41.6862C20.4163 41.6708 23.0118 41.8363 25.8384 42.181C28.665 42.5256 31.2242 42.9887 33.0813 43.4643C34.0029 43.7003 34.7901 43.949 35.3591 44.2029C35.6363 44.3267 35.9197 44.4766 36.1468 44.6632C36.3099 44.7972 36.7799 45.2222 36.6956 45.9132C36.6114 46.6042 36.0531 46.9038 35.8625 46.9947C35.5972 47.1212 35.2861 47.1987 34.9873 47.2522C34.3739 47.3619 33.55 47.4142 32.5987 47.4218Z" fill="#8C8C8C"/>
<path fill-rule="evenodd" clip-rule="evenodd" d="M16.9109 45.8566C16.9558 45.7172 17.1005 45.6408 17.2343 45.6861C17.8339 45.8892 19.1318 46.1804 20.3898 46.4344C21.6453 46.6879 22.8317 46.8986 23.2009 46.9436C23.3408 46.9607 23.4398 47.0926 23.422 47.2382C23.4043 47.3838 23.2765 47.488 23.1366 47.471C22.7458 47.4233 21.5416 47.2088 20.2878 46.9556C19.0366 46.703 17.7067 46.4061 17.0718 46.1911C16.9381 46.1458 16.8661 45.996 16.9109 45.8566Z" fill="#F0EFEF"/>
<path d="M19.8293 19.7733C19.8826 19.3364 20.266 19.0237 20.6858 19.0749C21.1055 19.1261 21.4026 19.5217 21.3493 19.9586L21.0278 22.5953C20.9745 23.0322 20.5911 23.3449 20.1714 23.2937C19.7516 23.2425 19.4545 22.8469 19.5078 22.41L19.8293 19.7733Z" fill="#404040"/>
<path d="M35.5359 21.6885C35.5892 21.2516 35.9726 20.9389 36.3924 20.9901C36.8121 21.0413 37.1092 21.4369 37.0559 21.8738L36.7344 24.5105C36.6811 24.9474 36.2977 25.26 35.878 25.2089C35.4582 25.1577 35.1612 24.762 35.2144 24.3252L35.5359 21.6885Z" fill="#404040"/>
<path fill-rule="evenodd" clip-rule="evenodd" d="M20.183 16.8729C20.4628 16.907 20.6609 17.1708 20.6254 17.462L18.6963 33.2823C18.4477 35.321 19.8341 37.1674 21.7928 37.4062L30.9128 38.5182C32.8715 38.7571 34.6609 37.298 34.9095 35.2593L36.8386 19.439C36.8741 19.1477 37.1297 18.9393 37.4096 18.9734C37.6894 19.0075 37.8874 19.2713 37.8519 19.5625L35.9229 35.3829C35.6032 38.0041 33.3026 39.88 30.7842 39.5729L21.6642 38.4609C19.1458 38.1538 17.3633 35.78 17.683 33.1588L19.612 17.3384C19.6475 17.0472 19.9032 16.8388 20.183 16.8729Z" fill="#595959"/>
<path d="M25.4681 36.784L27.4947 37.0311L28.1145 44.5993L23.0478 43.9815L25.4681 36.784Z" fill="#CFCFCF"/>
<path fill-rule="evenodd" clip-rule="evenodd" d="M24.5042 36.4422C24.6636 35.9681 25.1189 35.671 25.5967 35.7293L27.6233 35.9764C28.1012 36.0347 28.4717 36.4324 28.5125 36.9309L29.1323 44.4991C29.1584 44.8183 29.0443 45.1342 28.8217 45.3584C28.5991 45.5826 28.2919 45.6913 27.9859 45.6539L22.9193 45.0361C22.6132 44.9988 22.3412 44.8196 22.179 44.5484C22.0168 44.2773 21.9819 43.9433 22.084 43.6396L24.5042 36.4422ZM25.4681 36.784L27.4947 37.0311L28.1145 44.5993L23.0479 43.9814L25.4681 36.784Z" fill="#8C8C8C"/>
<path d="M25.4681 36.784L25.9747 36.8458L24.5678 44.1668L23.0478 43.9815L25.4681 36.784Z" fill="#F0EFEF"/>
<path d="M26.988 36.9693L27.4947 37.0311L28.1145 44.5992L26.5945 44.4139L26.988 36.9693Z" fill="#B3B3B3"/>
<path d="M22.917 11.3192C23.059 10.1542 24.0816 9.32048 25.2009 9.45696L34.3208 10.569C35.4401 10.7055 36.2323 11.7605 36.0902 12.9255L33.6468 32.9646C33.5047 34.1296 32.4822 34.9633 31.3629 34.8268L22.2429 33.7148C21.1237 33.5783 20.3314 32.5233 20.4735 31.3583L22.917 11.3192Z" fill="#F0EFEF"/>
<path fill-rule="evenodd" clip-rule="evenodd" d="M25.3294 8.40227L34.4494 9.51432C36.1283 9.71904 37.3166 11.3016 37.1035 13.0491L34.6601 33.0881C34.447 34.8356 32.9132 36.0862 31.2343 35.8815L22.1143 34.7695C20.4354 34.5648 19.2471 32.9822 19.4601 31.2347L21.9036 11.1956C22.1167 9.44818 23.6505 8.19755 25.3294 8.40227ZM25.2008 9.45696C24.0815 9.32048 23.059 10.1542 22.9169 11.3192L20.4735 31.3583C20.3314 32.5233 21.1236 33.5783 22.2429 33.7148L31.3629 34.8268C32.4821 34.9633 33.5047 34.1296 33.6467 32.9646L36.0902 12.9255C36.2323 11.7605 35.4401 10.7055 34.3208 10.569L25.2008 9.45696Z" fill="#8C8C8C"/>
<path fill-rule="evenodd" clip-rule="evenodd" d="M35.1412 12.2746C35.421 12.3087 35.6191 12.5725 35.5835 12.8637L33.7831 27.6294L32.7698 27.5058L34.5702 12.7402C34.6057 12.4489 34.8614 12.2405 35.1412 12.2746Z" fill="white"/>
<path fill-rule="evenodd" clip-rule="evenodd" d="M23.9946 10.9154C24.2744 10.9496 24.4725 11.2133 24.4369 11.5046L22.6365 26.2702L21.6232 26.1466L23.4236 11.381C23.4591 11.0898 23.7148 10.8813 23.9946 10.9154Z" fill="white"/>
<path d="M21.1165 26.0848L34.2898 27.6911L33.6468 32.9646C33.5047 34.1296 32.4822 34.9633 31.3629 34.8268L22.2429 33.7148C21.1237 33.5783 20.3314 32.5233 20.4735 31.3583L21.1165 26.0848Z" fill="#CFCFCF"/>
<path fill-rule="evenodd" clip-rule="evenodd" d="M20.9801 31.4201L21.6232 26.1466L22.6365 26.2702L21.9935 31.5436C21.958 31.8349 21.7023 32.0433 21.4225 32.0092C21.1427 31.9751 20.9446 31.7113 20.9801 31.4201Z" fill="#F0EFEF"/>
<path fill-rule="evenodd" clip-rule="evenodd" d="M32.1268 32.7792L32.7698 27.5058L33.7831 27.6294L33.1401 32.9028C33.1046 33.194 32.8489 33.4025 32.5691 33.3684C32.2893 33.3342 32.0912 33.0705 32.1268 32.7792Z" fill="#F0EFEF"/>
<path d="M35.1412 12.2746C35.1767 11.9834 34.9787 11.7196 34.6989 11.6855C34.419 11.6514 34.1634 11.8598 34.1279 12.151C34.0924 12.4423 34.2904 12.7061 34.5703 12.7402C34.8501 12.7743 35.1057 12.5659 35.1412 12.2746Z" fill="#DBDBDB"/>
<path d="M34.884 14.384C34.9195 14.0927 34.7215 13.829 34.4417 13.7949C34.1618 13.7607 33.9062 13.9692 33.8707 14.2604C33.8352 14.5517 34.0332 14.8154 34.3131 14.8495C34.5929 14.8837 34.8485 14.6752 34.884 14.384Z" fill="#DBDBDB"/>
<path d="M32.8574 14.1369C32.8929 13.8456 32.6948 13.5819 32.415 13.5477C32.1352 13.5136 31.8795 13.7221 31.844 14.0133C31.8085 14.3045 32.0066 14.5683 32.2864 14.6024C32.5662 14.6366 32.8218 14.4281 32.8574 14.1369Z" fill="#DBDBDB"/>
<path d="M33.9993 13.2057C34.0348 12.9145 33.8368 12.6507 33.557 12.6166C33.2771 12.5825 33.0215 12.7909 32.986 13.0822C32.9505 13.3734 33.1485 13.6372 33.4284 13.6713C33.7082 13.7054 33.9638 13.497 33.9993 13.2057Z" fill="#DBDBDB"/>
<path d="M31.9726 12.9586C32.0082 12.6674 31.8101 12.4036 31.5303 12.3695C31.2505 12.3354 30.9948 12.5438 30.9593 12.8351C30.9238 13.1263 31.1219 13.3901 31.4017 13.4242C31.6815 13.4583 31.9371 13.2499 31.9726 12.9586Z" fill="#DBDBDB"/>
<path d="M33.1146 12.0275C33.1501 11.7362 32.952 11.4725 32.6722 11.4384C32.3924 11.4042 32.1367 11.6127 32.1012 11.9039C32.0657 12.1952 32.2638 12.4589 32.5436 12.4931C32.8234 12.5272 33.079 12.3187 33.1146 12.0275Z" fill="#DBDBDB"/>
<path d="M33.7421 15.3151C33.7776 15.0239 33.5795 14.7601 33.2997 14.726C33.0199 14.6919 32.7642 14.9003 32.7287 15.1915C32.6932 15.4828 32.8913 15.7465 33.1711 15.7807C33.4509 15.8148 33.7065 15.6063 33.7421 15.3151Z" fill="#DBDBDB"/>
<path d="M33.4849 17.4245C33.5204 17.1332 33.3223 16.8695 33.0425 16.8354C32.7627 16.8012 32.507 17.0097 32.4715 17.3009C32.436 17.5922 32.6341 17.8559 32.9139 17.89C33.1937 17.9242 33.4493 17.7157 33.4849 17.4245Z" fill="#DBDBDB"/>
<path d="M31.4582 17.1774C31.4937 16.8861 31.2956 16.6224 31.0158 16.5882C30.736 16.5541 30.4804 16.7626 30.4449 17.0538C30.4093 17.345 30.6074 17.6088 30.8872 17.6429C31.167 17.677 31.4227 17.4686 31.4582 17.1774Z" fill="#DBDBDB"/>
<path d="M32.6002 16.2462C32.6357 15.955 32.4376 15.6912 32.1578 15.6571C31.878 15.623 31.6223 15.8314 31.5868 16.1227C31.5513 16.4139 31.7494 16.6777 32.0292 16.7118C32.309 16.7459 32.5646 16.5375 32.6002 16.2462Z" fill="#DBDBDB"/>
<path d="M34.6268 16.4934C34.6623 16.2021 34.4643 15.9384 34.1845 15.9042C33.9046 15.8701 33.649 16.0786 33.6135 16.3698C33.578 16.661 33.776 16.9248 34.0559 16.9589C34.3357 16.993 34.5913 16.7846 34.6268 16.4934Z" fill="#DBDBDB"/>
<path d="M34.3696 18.6027C34.4051 18.3115 34.207 18.0477 33.9272 18.0136C33.6474 17.9795 33.3917 18.1879 33.3562 18.4792C33.3207 18.7704 33.5188 19.0342 33.7986 19.0683C34.0784 19.1024 34.334 18.894 34.3696 18.6027Z" fill="#DBDBDB"/>
<path d="M32.343 18.3556C32.3785 18.0644 32.1804 17.8006 31.9006 17.7665C31.6208 17.7324 31.3651 17.9408 31.3296 18.232C31.2941 18.5233 31.4922 18.787 31.772 18.8212C32.0518 18.8553 32.3074 18.6468 32.343 18.3556Z" fill="#DBDBDB"/>
<path d="M30.5735 15.9991C30.609 15.7079 30.4109 15.4441 30.1311 15.41C29.8513 15.3759 29.5957 15.5843 29.5602 15.8755C29.5246 16.1668 29.7227 16.4306 30.0025 16.4647C30.2823 16.4988 30.538 16.2904 30.5735 15.9991Z" fill="#DBDBDB"/>
<path d="M31.7154 15.068C31.751 14.7767 31.5529 14.513 31.2731 14.4789C30.9933 14.4447 30.7376 14.6532 30.7021 14.9444C30.6666 15.2357 30.8647 15.4994 31.1445 15.5336C31.4243 15.5677 31.6799 15.3592 31.7154 15.068Z" fill="#DBDBDB"/>
<path d="M31.0879 11.7804C31.1234 11.4891 30.9253 11.2254 30.6455 11.1912C30.3657 11.1571 30.1101 11.3656 30.0746 11.6568C30.039 11.948 30.2371 12.2118 30.5169 12.2459C30.7967 12.28 31.0524 12.0716 31.0879 11.7804Z" fill="#DBDBDB"/>
<path d="M30.8307 13.8897C30.8662 13.5985 30.6681 13.3347 30.3883 13.3006C30.1085 13.2665 29.8529 13.4749 29.8174 13.7662C29.7818 14.0574 29.9799 14.3212 30.2597 14.3553C30.5395 14.3894 30.7952 14.181 30.8307 13.8897Z" fill="#DBDBDB"/>
<path d="M28.804 13.6426C28.8395 13.3514 28.6415 13.0876 28.3616 13.0535C28.0818 13.0194 27.8262 13.2278 27.7907 13.5191C27.7552 13.8103 27.9532 14.0741 28.233 14.1082C28.5129 14.1423 28.7685 13.9339 28.804 13.6426Z" fill="#DBDBDB"/>
<path d="M29.946 12.7115C29.9815 12.4202 29.7834 12.1565 29.5036 12.1224C29.2238 12.0882 28.9682 12.2967 28.9326 12.5879C28.8971 12.8792 29.0952 13.1429 29.375 13.177C29.6548 13.2112 29.9105 13.0027 29.946 12.7115Z" fill="#DBDBDB"/>
<path d="M27.9193 12.4644C27.9548 12.1731 27.7568 11.9094 27.4769 11.8752C27.1971 11.8411 26.9415 12.0496 26.906 12.3408C26.8705 12.632 27.0685 12.8958 27.3483 12.9299C27.6282 12.964 27.8838 12.7556 27.9193 12.4644Z" fill="#DBDBDB"/>
<path d="M29.0612 11.5332C29.0967 11.242 28.8987 10.9782 28.6188 10.9441C28.339 10.91 28.0834 11.1184 28.0479 11.4097C28.0124 11.7009 28.2104 11.9647 28.4902 11.9988C28.7701 12.0329 29.0257 11.8245 29.0612 11.5332Z" fill="#DBDBDB"/>
<path d="M29.6888 14.8209C29.7243 14.5296 29.5262 14.2659 29.2464 14.2317C28.9666 14.1976 28.711 14.4061 28.6754 14.6973C28.6399 14.9885 28.838 15.2523 29.1178 15.2864C29.3976 15.3205 29.6533 15.1121 29.6888 14.8209Z" fill="#DBDBDB"/>
<path d="M29.4316 16.9302C29.4671 16.639 29.269 16.3752 28.9892 16.3411C28.7094 16.307 28.4538 16.5154 28.4182 16.8067C28.3827 17.0979 28.5808 17.3617 28.8606 17.3958C29.1404 17.4299 29.3961 17.2215 29.4316 16.9302Z" fill="#DBDBDB"/>
<path d="M27.4049 16.6831C27.4404 16.3919 27.2424 16.1281 26.9625 16.094C26.6827 16.0599 26.4271 16.2683 26.3916 16.5596C26.3561 16.8508 26.5541 17.1146 26.8339 17.1487C27.1138 17.1828 27.3694 16.9744 27.4049 16.6831Z" fill="#DBDBDB"/>
<path d="M28.5468 15.752C28.5823 15.4607 28.3843 15.197 28.1044 15.1629C27.8246 15.1287 27.569 15.3372 27.5335 15.6284C27.498 15.9197 27.696 16.1834 27.9758 16.2176C28.2557 16.2517 28.5113 16.0432 28.5468 15.752Z" fill="#DBDBDB"/>
<path d="M27.0346 11.2861C27.0701 10.9949 26.8721 10.7311 26.5922 10.697C26.3124 10.6629 26.0568 10.8713 26.0213 11.1626C25.9858 11.4538 26.1838 11.7176 26.4636 11.7517C26.7435 11.7858 26.9991 11.5774 27.0346 11.2861Z" fill="#DBDBDB"/>
<path d="M25.8926 12.2172C25.9281 11.926 25.7301 11.6622 25.4503 11.6281C25.1704 11.594 24.9148 11.8024 24.8793 12.0937C24.8438 12.3849 25.0418 12.6487 25.3217 12.6828C25.6015 12.7169 25.8571 12.5085 25.8926 12.2172Z" fill="#DBDBDB"/>
<path d="M26.7774 13.3955C26.8129 13.1042 26.6149 12.8405 26.335 12.8064C26.0552 12.7722 25.7996 12.9807 25.7641 13.2719C25.7286 13.5632 25.9266 13.8269 26.2064 13.8611C26.4863 13.8952 26.7419 13.6867 26.7774 13.3955Z" fill="#DBDBDB"/>
<path d="M30.3163 18.1085C30.3518 17.8172 30.1537 17.5535 29.8739 17.5194C29.5941 17.4852 29.3385 17.6937 29.3029 17.9849C29.2674 18.2762 29.4655 18.5399 29.7453 18.574C30.0251 18.6082 30.2808 18.3997 30.3163 18.1085Z" fill="#DBDBDB"/>
<path d="M31.201 19.2867C31.2365 18.9955 31.0384 18.7317 30.7586 18.6976C30.4788 18.6635 30.2232 18.8719 30.1877 19.1632C30.1521 19.4544 30.3502 19.7182 30.63 19.7523C30.9098 19.7864 31.1655 19.578 31.201 19.2867Z" fill="#DBDBDB"/>
<path d="M33.2277 19.5339C33.2632 19.2426 33.0651 18.9789 32.7853 18.9447C32.5055 18.9106 32.2498 19.119 32.2143 19.4103C32.1788 19.7015 32.3769 19.9653 32.6567 19.9994C32.9365 20.0335 33.1921 19.8251 33.2277 19.5339Z" fill="#DBDBDB"/>
<path d="M34.1124 20.7121C34.1479 20.4209 33.9498 20.1571 33.67 20.123C33.3902 20.0889 33.1345 20.2973 33.099 20.5885C33.0635 20.8798 33.2616 21.1436 33.5414 21.1777C33.8212 21.2118 34.0768 21.0034 34.1124 20.7121Z" fill="#DBDBDB"/>
<path d="M32.0857 20.465C32.1213 20.1737 31.9232 19.91 31.6434 19.8759C31.3636 19.8417 31.1079 20.0502 31.0724 20.3414C31.0369 20.6327 31.235 20.8964 31.5148 20.9306C31.7946 20.9647 32.0502 20.7562 32.0857 20.465Z" fill="#DBDBDB"/>
<path d="M30.0591 20.2179C30.0946 19.9266 29.8965 19.6629 29.6167 19.6287C29.3369 19.5946 29.0813 19.8031 29.0457 20.0943C29.0102 20.3855 29.2083 20.6493 29.4881 20.6834C29.7679 20.7175 30.0236 20.5091 30.0591 20.2179Z" fill="#DBDBDB"/>
<path d="M32.9705 21.6432C33.006 21.352 32.8079 21.0882 32.5281 21.0541C32.2483 21.02 31.9926 21.2284 31.9571 21.5197C31.9216 21.8109 32.1197 22.0747 32.3995 22.1088C32.6793 22.1429 32.9349 21.9345 32.9705 21.6432Z" fill="#DBDBDB"/>
<path d="M33.8552 22.8215C33.8907 22.5302 33.6926 22.2665 33.4128 22.2324C33.133 22.1982 32.8773 22.4067 32.8418 22.6979C32.8063 22.9892 33.0044 23.2529 33.2842 23.287C33.564 23.3212 33.8196 23.1127 33.8552 22.8215Z" fill="#DBDBDB"/>
<path d="M26.5202 15.5049C26.5557 15.2136 26.3577 14.9499 26.0778 14.9157C25.798 14.8816 25.5424 15.0901 25.5069 15.3813C25.4714 15.6725 25.6694 15.9363 25.9492 15.9704C26.2291 16.0045 26.4847 15.7961 26.5202 15.5049Z" fill="#DBDBDB"/>
<path d="M27.6621 14.5737C27.6976 14.2825 27.4996 14.0187 27.2197 13.9846C26.9399 13.9505 26.6843 14.1589 26.6488 14.4502C26.6133 14.7414 26.8113 15.0052 27.0911 15.0393C27.371 15.0734 27.6266 14.865 27.6621 14.5737Z" fill="#DBDBDB"/>
<path d="M28.773 30.7647C28.6664 31.6385 27.8996 32.2638 27.0601 32.1614C26.2206 32.0591 25.6265 31.2678 25.733 30.3941C25.8395 29.5203 26.6064 28.895 27.4459 28.9974C28.2854 29.0997 28.8795 29.891 28.773 30.7647Z" fill="#525252"/>
<path fill-rule="evenodd" clip-rule="evenodd" d="M29.7863 30.8883C29.6088 32.3445 28.3306 33.3867 26.9315 33.2161C25.5324 33.0455 24.5421 31.7267 24.7197 30.2705C24.8973 28.8143 26.1754 27.7721 27.5745 27.9427C28.9736 28.1133 29.9639 29.4321 29.7863 30.8883ZM27.0601 32.1614C27.8996 32.2638 28.6665 31.6385 28.773 30.7647C28.8795 29.891 28.2854 29.0997 27.4459 28.9974C26.6064 28.895 25.8396 29.5203 25.733 30.3941C25.6265 31.2678 26.2206 32.0591 27.0601 32.1614Z" fill="#8C8C8C"/>
<path d="M27.3173 30.0521C27.2818 30.3433 27.0262 30.5517 26.7463 30.5176C26.4665 30.4835 26.2685 30.2197 26.304 29.9285C26.3395 29.6373 26.5951 29.4288 26.875 29.4629C27.1548 29.4971 27.3528 29.7608 27.3173 30.0521Z" fill="#6C6C6C"/>
</svg>
