<svg width="19" height="19" viewBox="0 0 19 19" fill="none" xmlns="http://www.w3.org/2000/svg">
<g clip-path="url(#clip0_1038_1176)">
<path d="M17.0266 13.9307C16.546 13.5023 16.1252 13.0111 15.7757 12.4705C15.394 11.7242 15.1653 10.9092 15.1029 10.0734V7.61148C15.1062 6.29861 14.63 5.02972 13.7637 4.04322C12.8974 3.05671 11.7007 2.4205 10.3984 2.25412V1.61123C10.3984 1.43478 10.3283 1.26556 10.2035 1.14079C10.0787 1.01602 9.90951 0.945923 9.73306 0.945923C9.55661 0.945923 9.38739 1.01602 9.26262 1.14079C9.13785 1.26556 9.06775 1.43478 9.06775 1.61123V2.26408C7.77713 2.44246 6.59488 3.08252 5.73997 4.06571C4.88506 5.0489 4.41543 6.30859 4.41806 7.61148V10.0734C4.35564 10.9092 4.1269 11.7242 3.74527 12.4705C3.40184 13.0099 2.98786 13.501 2.51432 13.9307C2.46116 13.9774 2.41856 14.0349 2.38934 14.0993C2.36013 14.1638 2.34497 14.2337 2.34488 14.3045V14.9822C2.34488 15.1144 2.39738 15.2412 2.49085 15.3346C2.58431 15.4281 2.71107 15.4806 2.84324 15.4806H16.6976C16.8298 15.4806 16.9566 15.4281 17.05 15.3346C17.1435 15.2412 17.196 15.1144 17.196 14.9822V14.3045C17.1959 14.2337 17.1808 14.1638 17.1515 14.0993C17.1223 14.0349 17.0797 13.9774 17.0266 13.9307ZM3.38147 14.4839C3.84515 14.0359 4.2534 13.534 4.59747 12.9888C5.07819 12.0875 5.35868 11.093 5.41976 10.0734V7.61148C5.39999 7.02742 5.49796 6.44536 5.70783 5.89995C5.9177 5.35454 6.23518 4.85694 6.64136 4.43678C7.04754 4.01663 7.53412 3.6825 8.07212 3.4543C8.61012 3.22611 9.18854 3.10851 9.77293 3.10851C10.3573 3.10851 10.9357 3.22611 11.4737 3.4543C12.0117 3.6825 12.4983 4.01663 12.9045 4.43678C13.3107 4.85694 13.6282 5.35454 13.838 5.89995C14.0479 6.44536 14.1459 7.02742 14.1261 7.61148V10.0734C14.1872 11.093 14.4677 12.0875 14.9484 12.9888C15.2925 13.534 15.7007 14.0359 16.1644 14.4839H3.38147Z" fill="#424242"/>
<path d="M9.79549 17.1155C10.1094 17.1083 10.4107 16.9903 10.646 16.7823C10.8813 16.5744 11.0355 16.2899 11.0813 15.9792H8.45988C8.50697 16.2984 8.66836 16.5895 8.91404 16.7985C9.15972 17.0075 9.47296 17.1202 9.79549 17.1155Z" fill="#424242"/>
<circle cx="14.622" cy="4.12592" r="2.61639" fill="#F99A0E" stroke="white" stroke-width="0.74754"/>
</g>
<defs>
<clipPath id="clip0_1038_1176">
<rect width="17.941" height="17.941" fill="white" transform="translate(0.824982 0.0615234)"/>
</clipPath>
</defs>
</svg>
